<svg width="141" height="141" xmlns="http://www.w3.org/2000/svg" xmlns:xlink="http://www.w3.org/1999/xlink" overflow="hidden"><defs><clipPath id="clip0"><rect x="0" y="0" width="141" height="141"/></clipPath></defs><g clip-path="url(#clip0)"><path d="M39.6562 47C39.6562 48.6223 38.3411 49.9375 36.7188 49.9375 35.0964 49.9375 33.7812 48.6223 33.7812 47 33.7812 45.3777 35.0964 44.0625 36.7188 44.0625 38.3411 44.0625 39.6562 45.3777 39.6562 47Z" fill="#000000" fill-rule="nonzero" fill-opacity="1"/><path d="M39.6562 58.75C39.6562 60.3723 38.3411 61.6875 36.7188 61.6875 35.0964 61.6875 33.7812 60.3723 33.7812 58.75 33.7812 57.1277 35.0964 55.8125 36.7188 55.8125 38.3411 55.8125 39.6562 57.1277 39.6562 58.75Z" fill="#000000" fill-rule="nonzero" fill-opacity="1"/><path d="M33.7812 52.875C33.7812 54.4973 32.4661 55.8125 30.8438 55.8125 29.2214 55.8125 27.9062 54.4973 27.9062 52.875 27.9062 51.2527 29.2214 49.9375 30.8438 49.9375 32.4661 49.9375 33.7812 51.2527 33.7812 52.875Z" fill="#000000" fill-rule="nonzero" fill-opacity="1"/><path d="M45.5312 52.875C45.5312 54.4973 44.2161 55.8125 42.5938 55.8125 40.9714 55.8125 39.6562 54.4973 39.6562 52.875 39.6562 51.2527 40.9714 49.9375 42.5938 49.9375 44.2161 49.9375 45.5312 51.2527 45.5312 52.875Z" fill="#000000" fill-rule="nonzero" fill-opacity="1"/><path d="M80.7812 41.125C80.7812 42.7473 79.4661 44.0625 77.8438 44.0625 76.2214 44.0625 74.9062 42.7473 74.9062 41.125 74.9062 39.5027 76.2214 38.1875 77.8438 38.1875 79.4661 38.1875 80.7812 39.5027 80.7812 41.125Z" fill="#000000" fill-rule="nonzero" fill-opacity="1"/><path d="M80.7812 52.875C80.7812 54.4973 79.4661 55.8125 77.8438 55.8125 76.2214 55.8125 74.9062 54.4973 74.9062 52.875 74.9062 51.2527 76.2214 49.9375 77.8438 49.9375 79.4661 49.9375 80.7812 51.2527 80.7812 52.875Z" fill="#000000" fill-rule="nonzero" fill-opacity="1"/><path d="M74.9062 47C74.9062 48.6223 73.5911 49.9375 71.9688 49.9375 70.3464 49.9375 69.0312 48.6223 69.0312 47 69.0312 45.3777 70.3464 44.0625 71.9688 44.0625 73.5911 44.0625 74.9062 45.3777 74.9062 47Z" fill="#000000" fill-rule="nonzero" fill-opacity="1"/><path d="M86.6562 47C86.6562 48.6223 85.3411 49.9375 83.7188 49.9375 82.0964 49.9375 80.7812 48.6223 80.7812 47 80.7812 45.3777 82.0964 44.0625 83.7188 44.0625 85.3411 44.0625 86.6562 45.3777 86.6562 47Z" fill="#000000" fill-rule="nonzero" fill-opacity="1"/><path d="M120.438 66.0938 111.625 74.9062 99.875 74.9062 99.875 107.219 111.625 107.219 120.438 116.031 129.25 116.031 129.25 66.0938Z" fill="#000000" fill-rule="nonzero" fill-opacity="1"/><path d="M77.8438 60.2188C70.5 60.2188 64.625 54.3438 64.625 47 64.625 39.6562 70.5 33.7812 77.8438 33.7812 85.1875 33.7812 91.0625 39.6562 91.0625 47 91.0625 54.3438 85.1875 60.2188 77.8438 60.2188ZM82.25 107.219C80.6344 107.219 79.3125 105.897 79.3125 104.281 79.3125 102.666 80.6344 101.344 82.25 101.344 83.8656 101.344 85.1875 102.666 85.1875 104.281 85.1875 105.897 83.8656 107.219 82.25 107.219ZM54.3438 66.0938C56.2531 63.45 57.7219 60.5125 58.3094 57.1344 60.2188 60.8063 63.3031 63.8906 66.8281 66.0938L54.3438 66.0938ZM36.7188 66.0938C29.375 66.0938 23.5 60.2188 23.5 52.875 23.5 45.5312 29.375 39.6562 36.7188 39.6562 44.0625 39.6562 49.9375 45.5312 49.9375 52.875 49.9375 60.2188 44.0625 66.0938 36.7188 66.0938ZM88.7125 66.0938C95.3219 62.275 99.875 55.225 99.875 47 99.875 34.8094 90.0344 24.9688 77.8438 24.9688 67.1219 24.9688 58.3094 32.6063 56.2531 42.7406 52.5812 35.6906 45.2375 30.8438 36.7188 30.8438 24.5281 30.8438 14.6875 40.6844 14.6875 52.875 14.6875 60.0719 18.2125 66.3875 23.5 70.5L23.5 74.9062 20.5625 74.9062 17.625 71.9688 11.75 71.9688 11.75 86.6562 17.625 86.6562 20.5625 83.7188 23.5 83.7188 23.5 110.156C23.5 113.387 26.1437 116.031 29.375 116.031L88.125 116.031C91.3563 116.031 94 113.387 94 110.156L94 71.9688C94 68.8844 91.65 66.3875 88.7125 66.0938Z" fill="#000000" fill-rule="nonzero" fill-opacity="1"/></g></svg>