<svg width="146" height="146" xmlns="http://www.w3.org/2000/svg" xmlns:xlink="http://www.w3.org/1999/xlink" overflow="hidden"><defs><clipPath id="clip0"><rect x="0" y="0" width="146" height="146"/></clipPath></defs><g clip-path="url(#clip0)"><path d="M121.56 52.7425 66.8102 65.7152 66.8102 111.021C63.7564 110.412 60.5926 110.681 57.6852 111.796 51.0848 114.199 47.0394 119.705 48.5602 124.1 50.081 128.495 56.7879 130.183 63.3883 127.735 69.35 125.575 72.7567 120.131 72.7567 116.754L72.7567 72.8783 115.34 62.8256 115.34 100.999C112.22 100.37 108.986 100.644 106.017 101.789 99.2648 104.268 95.0977 109.941 96.7402 114.488 98.3827 119.036 105.181 120.709 111.949 118.245 117.667 116.192 121.469 111.949 121.667 107.979Z" fill="#000000" fill-rule="nonzero" fill-opacity="1"/><path d="M51.0696 26.4625C49.7308 25.5886 48.6119 24.4177 47.7998 23.0406L47.7998 20.2423C47.7998 18.5624 46.438 17.2006 44.7581 17.2006 43.0782 17.2006 41.7165 18.5624 41.7165 20.2423L41.7165 66.1562C38.7746 65.6378 35.747 65.9268 32.9565 66.9927 26.356 69.3804 22.3106 74.8858 23.8315 79.2962 25.3523 83.7067 32.0744 85.3796 38.6748 82.931 43.2373 81.2581 46.6135 78.0796 47.6933 74.8098L47.6933 42.7354C48.1046 43.0572 48.5365 43.3518 48.986 43.6175 59.13 49.7008 53.5485 59.3125 58.5065 59.3581 64.8788 59.4038 65.1373 35.846 51.0696 26.4625Z" fill="#000000" fill-rule="nonzero" fill-opacity="1"/></g></svg>